<?xml version="1.0" encoding="UTF-8"?>
<svg width="21px" height="22px" viewBox="0 0 21 22" version="1.1" xmlns="http://www.w3.org/2000/svg" xmlns:xlink="http://www.w3.org/1999/xlink">
    <!-- Generator: Sketch 51.2 (57519) - http://www.bohemiancoding.com/sketch -->
    <title>Shape</title>
    <desc>Created with Sketch.</desc>
    <defs></defs>
    <g id="Page-1" stroke="none" stroke-width="1" fill="none" fill-rule="evenodd">
        <g id="teamawesome-timesheets-mobile-MENU" transform="translate(-340.000000, -54.000000)" fill="#FFFFFF" fill-rule="nonzero">
            <g id="Header">
                <g id="remove-2" transform="translate(340.000000, 54.000000)">
                    <g id="Filled_Icons_1_">
                        <g id="Filled_Icons">
                            <path d="M20.03736,16.6226923 L14.45472,11 L20.03988,5.37307692 C20.20452,5.20807692 20.20452,4.93984615 20.03988,4.77484615 L16.26072,0.967153846 C16.09692,0.802153846 15.83064,0.802153846 15.66684,0.967153846 L10.08084,6.59407692 L4.49652,0.970538462 C4.33272,0.804692308 4.06644,0.804692308 3.90264,0.970538462 L0.12264,4.77738462 C-0.04116,4.94238462 -0.04116,5.21061538 0.12264,5.37561538 L5.70696,11 L0.12768,16.621 C-0.03612,16.786 -0.03612,17.0542308 0.12768,17.2192308 L3.90852,21.0269231 C3.91272,21.032 3.91608,21.0370769 3.92028,21.0387692 C4.08408,21.2037692 4.33776,21.1927692 4.5024,21.0269231 L10.08168,15.4059231 L15.66348,21.0294615 C15.82728,21.1944615 16.09356,21.1944615 16.25736,21.0294615 L20.03736,17.2209231 C20.0424,17.2166923 20.04744,17.2133077 20.04912,17.2090769 C20.21208,17.0440769 20.20116,16.7885385 20.03736,16.6226923 Z" id="Shape"></path>
                        </g>
                    </g>
                </g>
            </g>
        </g>
    </g>
</svg>