<?xml version="1.0" encoding="UTF-8"?>
<svg width="16px" height="16px" viewBox="0 0 16 16" version="1.1" xmlns="http://www.w3.org/2000/svg" xmlns:xlink="http://www.w3.org/1999/xlink">
    <!-- Generator: Sketch 51.2 (57519) - http://www.bohemiancoding.com/sketch -->
    <title>forbid</title>
    <desc>Created with Sketch.</desc>
    <defs></defs>
    <g id="Page-1" stroke="none" stroke-width="1" fill="none" fill-rule="evenodd">
        <g id="teamawesome-timesheets" transform="translate(-406.000000, -441.000000)" fill="#FFFFFF">
            <g id="Add" transform="translate(394.000000, 431.000000)">
                <path d="M16.5234656,22.890748 C17.5042844,23.5892091 18.7041695,24 20,24 C23.3137087,24 26,21.3137087 26,18 C26,16.7041695 25.5892091,15.5042844 24.890748,14.5234656 L16.5234656,22.890748 Z M15.109252,21.4765344 L23.4765344,13.109252 C22.4957156,12.4107909 21.2958305,12 20,12 C16.6862913,12 14,14.6862913 14,18 C14,19.2958305 14.4107909,20.4957156 15.109252,21.4765344 Z M20,26 C15.5817218,26 12,22.4182782 12,18 C12,13.5817218 15.5817218,10 20,10 C24.4182782,10 28,13.5817218 28,18 C28,22.4182782 24.4182782,26 20,26 Z" id="forbid"></path>
            </g>
        </g>
    </g>
</svg>